<svg id="Layer_1" data-name="Layer 1" xmlns="http://www.w3.org/2000/svg" viewBox="0 0 134.86 128.24"><path d="M46.48,41.34,66.61.56a1,1,0,0,1,1.79,0L88.53,41.34l-21,26.83Z" fill="none"/><path d="M67.87,68.51l21-26.77L134,48.3a1,1,0,0,1,.56,1.7L102,81.72Z" fill="none"/><path d="M67.5,106.92v-38l34.06,13.18,7.72,45a1,1,0,0,1-1.46,1.05Z" fill="none"/><path d="M32.84,82.06,66.89,68.88v38l-40.32,21.2a1,1,0,0,1-1.45-1.05Z" fill="none"/><path d="M.86,48.06,46,41.5,67,68.27,32.85,81.48.3,49.76A1,1,0,0,1,.86,48.06Z" fill="none"/><path d="M46.48,41.34,66.61.56a1,1,0,0,1,1.79,0L88.53,41.34,85,45.9,79.4,53c-2.07,2.62-2.79,3.52-3.73,4.77-.52.68-1.06,1.35-1.58,2a8.4,8.4,0,0,1-1.22,1.53c-1,.72-2,.11-4-.08-3.67-.37-5.4,1.19-6.82-.06-.05,0-.39-.48-1.08-1.36-.86-1.09-1.49-1.92-1.58-2-.93-1.22-1.7-2.18-4.5-5.75t-5-6.32Z" fill="blue"/></svg>