<svg id="Layer_1" data-name="Layer 1" xmlns="http://www.w3.org/2000/svg" viewBox="0 0 134.86 128.24"><path d="M46.48,41.34,66.61.56a1,1,0,0,1,1.79,0L88.53,41.34l-21,26.83Z" fill="none"/><path d="M67.87,68.51l21-26.77L134,48.3a1,1,0,0,1,.56,1.7L102,81.72Z" fill="none"/><path d="M67.5,106.92v-38l34.06,13.18,7.72,45a1,1,0,0,1-1.46,1.05Z" fill="none"/><path d="M32.84,82.06,66.89,68.88v38l-40.32,21.2a1,1,0,0,1-1.45-1.05Z" fill="none"/><path d="M.86,48.06,46,41.5,67,68.27,32.85,81.48.3,49.76A1,1,0,0,1,.86,48.06Z" fill="none"/><path d="M83.81,48.17c0-.07,0-.06,1.35-1.73l3.69-4.7L134,48.3a1,1,0,0,1,.55,1.7L102,81.72c-1.73-.68-4.32-1.69-7.52-2.91-1.88-.71-1.87-.7-2-.76-3.78-2.12-2-7.83-4.31-15.59C86.07,55.4,81.86,51.23,83.81,48.17Z" fill="lime"/></svg>