<svg id="Layer_1" data-name="Layer 1" xmlns="http://www.w3.org/2000/svg" viewBox="0 0 134.86 128.24"><path d="M46.48,41.34,66.61.56a1,1,0,0,1,1.79,0L88.53,41.34l-21,26.83Z" fill="none"/><path d="M67.87,68.51l21-26.77L134,48.3a1,1,0,0,1,.56,1.7L102,81.72Z" fill="none"/><path d="M67.5,106.92v-38l34.06,13.18,7.72,45a1,1,0,0,1-1.46,1.05Z" fill="none"/><path d="M32.84,82.06,66.89,68.88v38l-40.32,21.2a1,1,0,0,1-1.45-1.05Z" fill="none"/><path d="M.86,48.06,46,41.5,67,68.27,32.85,81.48.3,49.76A1,1,0,0,1,.86,48.06Z" fill="none"/><path d="M82.28,50.13c.74-1,1.45-1.87,2.88-3.69.87-1.09,2.11-2.68,3.69-4.7L134,48.3a1,1,0,0,1,.55,1.7L102,81.72c-3.38-1.32-5.86-2.27-7.52-2.91l-3.9-1.49-1.75-.69L87.24,76c-2.2-.86-5.89-2.26-5.89-2.26L76.81,72l-1.51-.6c-2.79-1.07-3.83-1.3-4-2.11-.1-.36.11-.33.11-1,0-1.56-1.17-2.19-.85-3.1,0,0,.23-.31.67-.86l.81-1c.6-.77.55-.75,1-1.34s.45-.55.88-1.1c.3-.38.39-.51.66-.86.48-.63.54-.65,1.28-1.61l1.33-1.68,1.49-1.9C79.75,53.38,80.23,52.76,82.28,50.13Z" fill="lime"/></svg>