<svg id="Layer_1" data-name="Layer 1" xmlns="http://www.w3.org/2000/svg" viewBox="0 0 134.86 128.24"><path d="M46.48,41.34,66.61.56a1,1,0,0,1,1.79,0L88.53,41.34l-21,26.83Z" fill="none"/><path d="M67.87,68.51l21-26.77L134,48.3a1,1,0,0,1,.56,1.7L102,81.72Z" fill="none"/><path d="M67.5,106.92v-38l34.05,13.18,7.72,45a1,1,0,0,1-1.46,1.05Z" fill="none"/><path d="M108,119.81c.57,3.31,1,5.55,1,5.68a1.19,1.19,0,0,0,0,.17c0,.12,0,.18.09.49s.12.7.15.92a1,1,0,0,1-.4,1,1,1,0,0,1-1.06.08c-.5-.24-.91-.46-1.19-.61s-.54-.3-1.13-.61c-.32-.17-.56-.29-.67-.36l-3.66-1.92a13,13,0,0,0,2.4-1A14.26,14.26,0,0,0,108,119.81Z" fill="#662d91"/><path d="M32.84,82.06,66.89,68.88v38l-40.32,21.2a1,1,0,0,1-1.45-1.05Z" fill="none"/><path d="M.86,48.06,46,41.5,67,68.27,32.85,81.48.3,49.76A1,1,0,0,1,.86,48.06Z" fill="none"/></svg>