<svg id="Layer_1" data-name="Layer 1" xmlns="http://www.w3.org/2000/svg" viewBox="0 0 134.86 128.24"><path d="M46.48,41.34,66.61.56a1,1,0,0,1,1.79,0L88.53,41.34l-21,26.83Z" fill="none"/><path d="M67.87,68.51l21-26.77L134,48.3a1,1,0,0,1,.56,1.7L102,81.72Z" fill="none"/><path d="M67.5,106.92v-38l34.05,13.18,7.72,45a1,1,0,0,1-1.46,1.05Z" fill="none"/><path d="M106.68,111.93c1.62,9.43,2.32,13.52,2.33,13.56v0s0,.08,0,.14,0,.18.09.49.12.7.15.92a1,1,0,0,1-.4,1,1,1,0,0,1-1.06.08c-.5-.24-.91-.46-1.19-.61s-.54-.3-1.13-.61l-.67-.36-11-5.77a12,12,0,0,0,5-2.61c1.48-1.34,1.79-2.37,3.34-3.75A12,12,0,0,1,106.68,111.93Z" fill="#662d91"/><path d="M32.84,82.06,66.89,68.88v38l-40.32,21.2a1,1,0,0,1-1.45-1.05Z" fill="none"/><path d="M.86,48.06,46,41.5,67,68.27,32.85,81.48.3,49.76A1,1,0,0,1,.86,48.06Z" fill="none"/></svg>