<svg id="Layer_1" data-name="Layer 1" xmlns="http://www.w3.org/2000/svg" viewBox="0 0 134.86 128.24"><path d="M46.48,41.34,66.61.56a1,1,0,0,1,1.79,0L88.53,41.34l-21,26.83Z" fill="none"/><path d="M67.87,68.51l21-26.77L134,48.3a1,1,0,0,1,.56,1.7L102,81.72Z" fill="none"/><path d="M67.5,106.92v-38l34.05,13.18,7.72,45a1,1,0,0,1-1.46,1.05Z" fill="none"/><path d="M104.65,100.1c3.14,18.3,4.35,25.39,4.36,25.39h0v0s0,.08,0,.14,0,.18.09.49.12.7.15.92a1,1,0,0,1-.4,1,1,1,0,0,1-1.06.08c-.5-.24-.91-.46-1.19-.61s-.54-.3-1.13-.61l-.67-.36L83.18,115.16a25.94,25.94,0,0,1,7.45-6c3.32-1.76,5.39-1.87,8.59-4A21.88,21.88,0,0,0,104.65,100.1Z" fill="#662d91"/><path d="M32.84,82.06,66.89,68.88v38l-40.32,21.2a1,1,0,0,1-1.45-1.05Z" fill="none"/><path d="M.86,48.06,46,41.5,67,68.27,32.85,81.48.3,49.76A1,1,0,0,1,.86,48.06Z" fill="none"/></svg>