<svg id="Layer_1" data-name="Layer 1" xmlns="http://www.w3.org/2000/svg" viewBox="0 0 134.86 128.24"><path d="M46.48,41.34,66.61.56a1,1,0,0,1,1.79,0L88.53,41.34l-21,26.83Z" fill="none"/><path d="M67.87,68.51l21-26.77L134,48.3a1,1,0,0,1,.56,1.7L102,81.72Z" fill="none"/><path d="M67.5,106.92v-38l34.05,13.18,7.72,45a1,1,0,0,1-1.46,1.05Z" fill="none"/><path d="M103.3,92.2c.69,4.07,4,23.4,4.7,27.46,0,.19,1,5.64,1,5.83h0v0s0,.08,0,.14,0,.18.09.49.12.7.15.92a1,1,0,0,1-.4,1,1,1,0,0,1-1.06.08c-.5-.24-.91-.46-1.19-.61s-.54-.3-1.13-.61l-.67-.36L76,111.38a43.79,43.79,0,0,1,9.8-6.92c4.53-2.31,7.09-2.57,10.79-5.17A25.8,25.8,0,0,0,103.3,92.2Z" fill="#662d91"/><path d="M32.84,82.06,66.89,68.88v38l-40.32,21.2a1,1,0,0,1-1.45-1.05Z" fill="none"/><path d="M.86,48.06,46,41.5,67,68.27,32.85,81.48.3,49.76A1,1,0,0,1,.86,48.06Z" fill="none"/></svg>