<svg id="Layer_1" data-name="Layer 1" xmlns="http://www.w3.org/2000/svg" viewBox="0 0 134.86 128.24"><path d="M46.48,41.34,66.61.56a1,1,0,0,1,1.79,0L88.53,41.34l-21,26.83Z" fill="none"/><path d="M67.87,68.51l21-26.77L134,48.3a1,1,0,0,1,.56,1.7L102,81.72Z" fill="none"/><path d="M67.5,106.92v-38l34.05,13.18,7.72,45a1,1,0,0,1-1.46,1.05Z" fill="none"/><path d="M32.84,82.06,66.89,68.88v38l-40.32,21.2a1,1,0,0,1-1.45-1.05Z" fill="none"/><path d="M.86,48.06,46,41.5,67,68.27,32.85,81.48.3,49.76A1,1,0,0,1,.86,48.06Z" fill="none"/><path d="M67.5,106.92v-1.27c0-4.29,0-6.83,0-8.82,0-4,0-5.92.12-6.12,1.36-4,5.15-3.32,12.24-8.91,3.77-3,5.06-5,7.88-5,.16,0,1.79.63,5.06,1.88s7.67,3,8,3.08l.42.17.32.12q3.86,22.5,7.72,45a1,1,0,0,1-1.45,1.05Z" fill="#fbb03b"/></svg>