<svg id="Layer_1" data-name="Layer 1" xmlns="http://www.w3.org/2000/svg" viewBox="0 0 134.86 128.24"><path d="M46.48,41.34,66.61.56a1,1,0,0,1,1.79,0L88.53,41.34l-21,26.83Z" fill="none"/><path d="M67.87,68.51l21-26.77L134,48.3a1,1,0,0,1,.56,1.7L102,81.72Z" fill="none"/><path d="M67.5,106.92v-38l34.05,13.18,7.72,45a1,1,0,0,1-1.46,1.05Z" fill="none"/><path d="M32.84,82.06,66.89,68.88v38l-40.32,21.2a1,1,0,0,1-1.45-1.05Z" fill="none"/><path d="M.86,48.06,46,41.5,67,68.27,32.85,81.48.3,49.76A1,1,0,0,1,.86,48.06Z" fill="none"/><path d="M67.5,106.92v-1.27c0-1.31,0-7.16,0-11.93,0-.6,0-2.55,0-4.21V86.24c.09-1.54,3.49-2.8,5-3.5,6.24-2.81,8.27-8.36,11-7.58.45.13,2.4.86,2.58.93l1.91.73,4.82,1.87,8,3.08.42.17.32.12q3.86,22.5,7.72,45a1,1,0,0,1-1.45,1.05Z" fill="#fbb03b"/></svg>