<svg id="Layer_1" data-name="Layer 1" xmlns="http://www.w3.org/2000/svg" viewBox="0 0 134.86 128.24"><path d="M46.48,41.34,66.61.56a1,1,0,0,1,1.79,0L88.53,41.34l-21,26.83Z" fill="none"/><path d="M67.87,68.51l21-26.77L134,48.3a1,1,0,0,1,.56,1.7L102,81.72Z" fill="none"/><path d="M67.5,106.92v-38l34.05,13.18,7.72,45a1,1,0,0,1-1.46,1.05Z" fill="none"/><path d="M32.84,82.06,66.89,68.88v38l-40.32,21.2a1,1,0,0,1-1.45-1.05Z" fill="none"/><path d="M.86,48.06,46,41.5,67,68.27,32.85,81.48.3,49.76A1,1,0,0,1,.86,48.06Z" fill="none"/><path d="M67.5,106.92v-1.27c0-1.31,0-7.16,0-11.93,0-.6,0-2.55,0-4.21V82c0-1.75,0-3.22,0-4.42a11.94,11.94,0,0,1,2.92-3.35,11.66,11.66,0,0,1,5-2.26L88,76.82l1.46.56,3.36,1.31,8,3.08.42.17.32.12q3.86,22.5,7.72,45a1,1,0,0,1-1.45,1.05Z" fill="#fbb03b"/></svg>