<svg id="Layer_1" data-name="Layer 1" xmlns="http://www.w3.org/2000/svg" viewBox="0 0 134.86 128.24"><path d="M46.48,41.34,66.61.56a1,1,0,0,1,1.79,0L88.53,41.34l-21,26.83Z" fill="none"/><path d="M67.87,68.51l21-26.77L134,48.3a1,1,0,0,1,.56,1.7L102,81.72Z" fill="none"/><path d="M67.5,106.92v-38l34.05,13.18,7.72,45a1,1,0,0,1-1.46,1.05Z" fill="none"/><path d="M32.84,82.06,66.89,68.88v38l-40.32,21.2a1,1,0,0,1-1.45-1.05Z" fill="none"/><path d="M.86,48.06,46,41.5,67,68.27,32.85,81.48.3,49.76A1,1,0,0,1,.86,48.06Z" fill="none"/><path d="M40.29,120.9h0l-10,5.28-3.68,1.93a1,1,0,0,1-1.45-1.05c.23-1.34.46-2.67.68-4,0,0,1.78-10.36,1.87-10.87h0s2.27,1.35,3.95,2.58c3.48,2.54,3.5,3.9,6.07,5C38.2,120,40.29,120.9,40.29,120.9Z" fill="blue"/></svg>