<svg id="Layer_1" data-name="Layer 1" xmlns="http://www.w3.org/2000/svg" viewBox="0 0 134.86 128.24"><path d="M46.48,41.34,66.61.56a1,1,0,0,1,1.79,0L88.53,41.34l-21,26.83Z" fill="none"/><path d="M67.87,68.51l21-26.77L134,48.3a1,1,0,0,1,.56,1.7L102,81.72Z" fill="none"/><path d="M67.5,106.92v-38l34.05,13.18,7.72,45a1,1,0,0,1-1.46,1.05Z" fill="none"/><path d="M32.84,82.06,66.89,68.88v38l-40.32,21.2a1,1,0,0,1-1.45-1.05Z" fill="none"/><path d="M.86,48.06,46,41.5,67,68.27,32.85,81.48.3,49.76A1,1,0,0,1,.86,48.06Z" fill="none"/><path d="M47.63,117l-10.32,5.42-7.06,3.72-3.68,1.93a1,1,0,0,1-1.45-1.05c.07-.43,1.69-9.92,3.93-22.91a13.72,13.72,0,0,1,8.05,3.29c1.75,1.61,2.07,2.94,4,5A19.23,19.23,0,0,0,47.63,117Z" fill="blue"/></svg>