<svg id="Layer_1" data-name="Layer 1" xmlns="http://www.w3.org/2000/svg" viewBox="0 0 134.87 128.24"><path d="M46.48,41.34,66.61.56a1,1,0,0,1,1.8,0L88.53,41.34l-21,26.83Z" fill="none"/><path d="M67.88,68.51l21-26.77L134,48.3a1,1,0,0,1,.55,1.7L102,81.72Z" fill="none"/><path d="M67.51,106.92v-38l34.05,13.18,7.72,45a1,1,0,0,1-1.45,1.05Z" fill="none"/><path d="M32.84,82.06,66.89,68.88v38l-40.32,21.2a1,1,0,0,1-1.45-1.05Z" fill="none"/><path d="M.86,48.06,46,41.5,67,68.27,32.85,81.48.31,49.76A1,1,0,0,1,.86,48.06Z" fill="none"/><path d="M.86,48.05l9.94-1.44,8.29-1.21h0s-.33,2.91-.73,4.67c-1,4.18-2.85,3.93-3.76,8a40.59,40.59,0,0,0-.64,5h0L6.48,55.79l-6.18-6a1,1,0,0,1,.56-1.71Z" fill="lime"/></svg>