<svg id="Layer_1" data-name="Layer 1" xmlns="http://www.w3.org/2000/svg" viewBox="0 0 134.87 128.24"><path d="M46.48,41.34,66.61.56a1,1,0,0,1,1.8,0L88.53,41.34l-21,26.83Z" fill="none"/><path d="M67.88,68.51l21-26.77L134,48.3a1,1,0,0,1,.55,1.7L102,81.72Z" fill="none"/><path d="M67.51,106.92v-38l34.05,13.18,7.72,45a1,1,0,0,1-1.45,1.05Z" fill="none"/><path d="M32.84,82.06,66.89,68.88v38l-40.32,21.2a1,1,0,0,1-1.45-1.05Z" fill="none"/><path d="M.86,48.06,46,41.5,67,68.27,32.85,81.48.31,49.76A1,1,0,0,1,.86,48.06Z" fill="none"/><path d="M.86,48.05l11.76-1.7,10.2-1.49h0a28.19,28.19,0,0,0-2.77,6.53c-1.1,4.36.95,5-.33,8.82a28.07,28.07,0,0,1-2.92,5.64h0L9.35,58.58l-9-8.82a1,1,0,0,1,.56-1.71Z" fill="lime"/></svg>