<svg id="Layer_1" data-name="Layer 1" xmlns="http://www.w3.org/2000/svg" viewBox="0 0 134.86 128.24"><path d="M46.48,41.34,66.61.56a1,1,0,0,1,1.79,0L88.53,41.34l-21,26.83Z" fill="none"/><path d="M67.87,68.51l21-26.77L134,48.3a1,1,0,0,1,.56,1.7L102,81.72Z" fill="none"/><path d="M67.5,106.92v-38l34.05,13.18,7.72,45a1,1,0,0,1-1.46,1.05Z" fill="none"/><path d="M32.84,82.06,66.89,68.88v38l-40.32,21.2a1,1,0,0,1-1.45-1.05Z" fill="none"/><path d="M.86,48.06,46,41.5,67,68.27,32.85,81.48.3,49.76A1,1,0,0,1,.86,48.06Z" fill="none"/><path d="M.86,48.06,15.37,46l15.06-2.19h0C27.06,51.69,26.64,54,26.64,54c-1,5.45,1,6-.45,10.24a38,38,0,0,1-3.7,7.15h0L10.37,59.57.3,49.76a1,1,0,0,1-.25-1A1,1,0,0,1,.86,48.06Z" fill="lime"/></svg>